<?xml version="1.0" standalone="no"?>
<!DOCTYPE svg PUBLIC "-//W3C//DTD SVG 20010904//EN"
 "http://www.w3.org/TR/2001/REC-SVG-20010904/DTD/svg10.dtd">
<svg version="1.0" xmlns="http://www.w3.org/2000/svg"
 width="700.000000pt" height="700.000000pt" viewBox="0 0 700.000000 700.000000"
 preserveAspectRatio="xMidYMid meet">
<metadata>
Created by potrace 1.14, written by Peter Selinger 2001-2017
</metadata>
<g transform="translate(0.000000,700.000000) scale(0.100000,-0.100000)"
fill="#000000" stroke="none">
<path d="M1305 6990 c-211 -33 -380 -88 -542 -178 -263 -145 -494 -392 -622
-667 -41 -86 -98 -255 -106 -315 -4 -24 -9 -48 -11 -51 -2 -4 -7 -34 -12 -66
-10 -78 -9 -4352 1 -4427 20 -150 90 -368 160 -496 91 -168 226 -334 357 -441
23 -19 48 -39 55 -46 6 -6 38 -28 71 -49 154 -99 260 -148 418 -193 105 -31
125 -36 216 -48 70 -10 4360 -10 4420 -1 89 15 115 20 188 39 240 61 483 201
666 385 204 203 331 438 403 739 l28 120 0 2195 c0 2103 -1 2199 -19 2290 -70
355 -237 640 -521 885 -103 89 -330 214 -470 258 -113 36 -118 37 -240 57
-105 18 -213 19 -2250 18 -1177 0 -2162 -4 -2190 -8z"/>
</g>
</svg>
